<svg width="1530" height="2212" viewBox="0 0 1530 2212" fill="none" xmlns="http://www.w3.org/2000/svg">
<rect x="24" y="-151" width="1530" height="2363" fill="#F4EDE1"/>
<path d="M1723.67 897C1538.17 1419 1577.53 1471 1140.67 1471C703.812 1471 729.77 1452.04 472.77 1054.04C779.77 787.544 910.77 422.544 1140.67 128C1441.77 491.044 1494.17 799.5 1723.67 897Z" fill="#D6B69A"/>
<path d="M2001.77 1045C1816.27 1567 1855.63 1619 1418.77 1619C981.913 1619 915.77 1502.5 658.77 1104.5C965.77 838 1163.77 504 1418.77 276C1714.77 644.5 1772.27 947.5 2001.77 1045Z" fill="#D5B59A"/>
<path d="M1572.77 1045C1387.27 1567 1426.63 1619 989.77 1619C552.913 1619 486.77 1502.5 229.77 1104.5C536.77 838 782.179 490.5 989.77 276C1297.18 566.5 1343.27 947.5 1572.77 1045Z" fill="#D6B69A"/>
<path d="M1867.77 963C1682.27 1485 1721.63 1537 1284.77 1537C847.913 1537 781.77 1420.5 524.77 1022.5C831.77 756 1077.18 408.5 1284.77 194C1582.77 540 1638.27 865.5 1867.77 963Z" fill="#D6B69A"/>
<path d="M1719.88 1237.72C2266.41 1816.85 1192.12 1928 768.771 1928C345.419 1928 -153.23 2025.86 -153.23 1534.71C-36.2297 1155.5 0.770294 910.5 -153.23 597C270.122 597 1173.85 1858.65 1719.88 1237.72Z" fill="#304E42"/>
<path d="M1179.77 509C699.27 701 567.27 1171.79 56.7703 1013C-453.73 854.209 -398.23 931.097 -398.23 622.369C-398.23 313.642 -45.2297 4.49981 285.27 46.4998C693.27 142.5 879.77 509 1179.77 509Z" fill="#304E42"/>
</svg>
